<svg width="32" height="33" viewBox="0 0 32 33" fill="none" xmlns="http://www.w3.org/2000/svg">
<path d="M12.0397 29.42L15.1463 26.8067C15.613 26.4067 16.3863 26.4067 16.853 26.8067L19.9597 29.42C20.6797 29.78 21.5597 29.42 21.8263 28.6467L22.413 26.8733C22.5597 26.4467 22.413 25.82 22.093 25.5L19.0663 22.46C18.8397 22.2467 18.6663 21.82 18.6663 21.5133V17.7133C18.6663 17.1533 19.0797 16.8867 19.5997 17.1L26.1463 19.9267C27.173 20.3667 28.013 19.82 28.013 18.7V16.98C28.013 16.0867 27.3463 15.06 26.5197 14.7133L19.0663 11.5C18.853 11.4067 18.6663 11.1267 18.6663 10.8867V6.88666C18.6663 5.63333 17.7463 4.15333 16.6263 3.57999C16.2263 3.37999 15.7597 3.37999 15.3597 3.57999C14.2397 4.15333 13.3197 5.64666 13.3197 6.89999V10.9C13.3197 11.14 13.133 11.42 12.9197 11.5133L5.47966 14.7267C4.65299 15.06 3.98633 16.0867 3.98633 16.98V18.7C3.98633 19.82 4.82633 20.3667 5.85299 19.9267L12.3997 17.1C12.9063 16.8733 13.333 17.1533 13.333 17.7133V21.5133C13.333 21.82 13.1597 22.2467 12.9463 22.46L9.91966 25.5C9.59966 25.82 9.453 26.4333 9.59966 26.8733L10.1863 28.6467C10.4263 29.42 11.3063 29.7933 12.0397 29.42Z" stroke="#CF3DA6" stroke-width="2.5" stroke-linecap="round" stroke-linejoin="round"/>
</svg>
