<svg width="180" height="41" viewBox="0 0 180 41" fill="none" xmlns="http://www.w3.org/2000/svg">
<path fill-rule="evenodd" clip-rule="evenodd" d="M16.5498 13.8178C13.3081 15.9613 10.9759 19.0631 9.8961 22.616C7.84876 29.3842 10.4078 36.885 17.2324 39.818C26.5023 43.766 39.6401 36.6034 37.8203 25.3234C37.5927 23.8573 36.9673 24.0828 36.9673 24.6467C36.9673 33.896 24.3985 40.8337 16.8346 34.4039C27.2988 28.5387 32.361 25.1546 33.4981 24.4212C41.3468 19.1198 30.1991 5.01963 16.5498 13.8178ZM14.6165 31.1327C10.1239 18.3865 29.3464 10.9417 30.1994 19.3455C30.3132 20.8116 29.6305 22.2784 28.3796 23.1239C18.8822 28.6508 14.6165 31.1327 14.6165 31.1327Z" fill="url(#paint0_linear_74_9355)"/>
<path fill-rule="evenodd" clip-rule="evenodd" d="M11.0904 1.69169L28.1518 0L23.2606 5.69641L24.5687 8.23429L25.308 9.64438C20.2465 9.70113 12.6826 13.254 9.95258 18.4426C9.72502 17.9914 9.09959 16.9197 8.81549 16.4118L7.50737 13.93L5.06216 14.1555C5.06216 15.1706 5.57382 16.2991 5.40351 17.7084C5.97241 18.0468 6.08619 18.7234 5.6876 19.2313L6.82469 22.2771L3.98089 22.7282L4.26498 19.4569C3.63955 19.2313 3.52577 17.9907 4.37877 17.5957C4.54908 16.2983 4.20845 15.2266 4.1512 14.2683H4.09467L0 14.6641L11.0904 1.69169Z" fill="url(#paint1_linear_74_9355)"/>
<path d="M45.828 28.8458L38.2746 18.508H43.6065L48.534 25.4259L53.4615 18.508H58.6721L51.1187 28.7264L58.9948 39.5012H53.663L48.412 32.1455L43.2014 39.5012H37.9909L45.8266 28.8458H45.828Z" fill="black"/>
<path fill-rule="evenodd" clip-rule="evenodd" d="M73.7782 36.917V39.5011V39.5018H78.6249V27.0568C78.6249 21.4502 75.555 18.1902 69.2543 18.1902C65.7808 18.1902 63.4784 18.9059 61.1356 19.94L62.4684 23.7969C64.4076 23.0016 66.1844 22.4849 68.5677 22.4849C71.961 22.4849 73.8187 24.0755 73.8187 26.9779V27.3752C72.1625 26.8578 70.5062 26.5004 67.9215 26.5004C62.9536 26.5004 59.278 28.727 59.278 33.3785V33.458C59.278 37.6725 62.833 39.9389 66.8718 39.9389C70.1026 39.9389 72.3242 38.6269 73.7782 36.917ZM69.0125 29.879C70.9106 29.879 72.6476 30.2371 73.8996 30.714V31.9066C73.8996 34.5311 71.4766 36.32 68.245 36.32C65.9426 36.32 64.1254 35.2063 64.1254 33.2185V33.1389C64.1254 31.1113 65.9426 29.879 69.0125 29.879Z" fill="black"/>
<path d="M82.5023 18.508H87.3894V21.689C88.7626 19.8206 90.6203 18.0709 93.8923 18.0709C96.9622 18.0709 99.1029 19.542 100.233 21.7686C101.971 19.542 104.233 18.0709 107.463 18.0709C112.109 18.0709 114.936 20.9734 114.936 26.1024V39.5012H110.049V27.5736C110.049 24.234 108.473 22.4445 105.727 22.4445C102.981 22.4445 101.163 24.2731 101.163 27.6532V39.5012H96.2756V27.5338C96.2756 24.2738 94.6598 22.4445 91.9538 22.4445C89.2478 22.4445 87.3894 24.4323 87.3894 27.693V39.5012H82.5023V18.508Z" fill="black"/>
<path fill-rule="evenodd" clip-rule="evenodd" d="M124.267 10.7153H119.016V15.2878H124.267V10.7153ZM124.106 18.508H119.218V39.5011H124.106V18.508Z" fill="url(#paint2_linear_74_9355)"/>
<path d="M126.811 36.758L128.992 33.498C131.295 35.2079 133.799 36.0821 135.98 36.0821C138.161 36.0821 139.291 35.2072 139.291 33.8157V33.7361C139.291 32.1058 137.029 31.5493 134.526 30.7938C131.375 29.919 127.861 28.6468 127.861 24.6314V24.5518C127.861 20.5762 131.213 18.1506 135.455 18.1506C138.12 18.1506 141.028 19.0652 143.29 20.5364L141.352 23.9555C139.292 22.7232 137.111 21.9677 135.333 21.9677C133.435 21.9677 132.344 22.8426 132.344 24.0749V24.1545C132.344 25.6654 134.647 26.3015 137.151 27.0968C140.261 28.0512 143.775 29.4428 143.775 33.2194V33.299C143.775 37.7124 140.301 39.8992 135.858 39.8992C132.829 39.8992 129.477 38.8254 126.811 36.758H126.811Z" fill="black"/>
<path d="M146.805 18.508H151.692V21.689C153.065 19.8206 154.923 18.0709 158.195 18.0709C161.265 18.0709 163.405 19.542 164.536 21.7686C166.273 19.542 168.535 18.0709 171.766 18.0709C176.411 18.0709 179.239 20.9734 179.239 26.1024V39.5012H174.351V27.5736C174.351 24.234 172.776 22.4445 170.03 22.4445C167.283 22.4445 165.465 24.2731 165.465 27.6532V39.5012H160.578V27.5338C160.578 24.2738 158.962 22.4445 156.256 22.4445C153.55 22.4445 151.692 24.4323 151.692 27.693V39.5012H146.805V18.508Z" fill="black"/>
<defs>
<linearGradient id="paint0_linear_74_9355" x1="9.20983" y1="40.9128" x2="37.9906" y2="40.9128" gradientUnits="userSpaceOnUse">
<stop stop-color="#D33DA3"/>
<stop offset="1" stop-color="#8A35D2"/>
</linearGradient>
<linearGradient id="paint1_linear_74_9355" x1="0" y1="22.7285" x2="28.1518" y2="22.7285" gradientUnits="userSpaceOnUse">
<stop stop-color="#D33DA3"/>
<stop offset="1" stop-color="#8A35D2"/>
</linearGradient>
<linearGradient id="paint2_linear_74_9355" x1="119.016" y1="39.5012" x2="124.267" y2="39.5012" gradientUnits="userSpaceOnUse">
<stop stop-color="#D33DA3"/>
<stop offset="1" stop-color="#8A35D2"/>
</linearGradient>
</defs>
</svg>
